<?xml version="1.0" encoding="utf-8"?>
<!-- Svg Vector Icons : http://www.onlinewebfonts.com/icon -->
<!DOCTYPE svg PUBLIC "-//W3C//DTD SVG 1.1//EN" "http://www.w3.org/Graphics/SVG/1.1/DTD/svg11.dtd">
<svg version="1.1" xmlns="http://www.w3.org/2000/svg" xmlns:xlink="http://www.w3.org/1999/xlink" x="0px" y="0px" viewBox="0 0 1000 1000" enable-background="new 0 0 1000 1000" xml:space="preserve">
<metadata> Svg Vector Icons : http://www.onlinewebfonts.com/icon </metadata>
<g><g transform="translate(0.000000,512.000000) scale(0.100000,-0.100000)"><path d="M4526.2,5008.1c-1477.3-151.4-2791.8-942.7-3625.3-2186.3C594.3,2362,306.9,1678,197.7,1139.5C115.3,733.3,100,574.3,100,124c0-450.3,15.3-605.5,97.7-1015.5C305-1422.3,592.4-2108.3,900.9-2573.9c921.6-1377.7,2458.4-2207.3,4094.7-2207.3c1850.9,0,3556.3,1059.6,4386,2722.8c831.6,1668.9,653.4,3631-467.5,5123.7c-776,1034.7-1921.8,1714.9-3228.6,1916.1C5445.9,5017.7,4771.4,5035,4526.2,5008.1z M5675.9,4360.5c272.1-46,647.6-147.5,862.2-231.8c1291.5-507.8,2259.1-1592.3,2604-2912.5C9247.5,810,9276.2,574.3,9276.2,124c0-450.3-28.8-686-134.1-1092.2c-389-1486.9-1567.4-2665.3-3054.3-3054.3c-406.2-105.4-641.9-134.1-1092.2-134.1s-686,28.7-1092.2,134.1c-925.5,241.4-1755.2,799-2331.9,1569.3c-438.8,582.5-703.2,1211-823.9,1954.4c-46,295.1-46,952.3,1.9,1245.5c155.2,956.1,553.8,1741.7,1216.7,2406.6c726.2,726.2,1649.8,1157.3,2684.5,1251.2C4857.7,4423.7,5451.7,4396.9,5675.9,4360.5z"/><path d="M3271.1,1952c-435-157.1-561.4-693.6-239.5-1013.6c124.5-126.5,239.5-172.5,431.1-172.5s306.6,46,431.1,172.5c126.5,124.6,172.4,239.5,172.4,431.1s-46,306.6-172.4,431.1C3736.8,1957.7,3468.5,2022.9,3271.1,1952z"/><path d="M6336.9,1952c-435-157.1-561.4-693.6-239.5-1013.6c124.5-126.5,239.5-172.5,431.1-172.5c191.6,0,306.6,46,431.1,172.5c126.4,124.6,172.4,239.5,172.4,431.1s-46,306.6-172.4,431.1C6802.5,1957.7,6534.3,2022.9,6336.9,1952z"/><path d="M4650.7-280.3c-517.3-46-1006-214.6-1396.8-482.8c-270.2-185.9-580.6-523.1-787.5-856.5c-82.4-130.3-93.9-287.4-26.8-377.5c67.1-92,157.1-139.9,256.8-139.9c130.3,0,197.4,53.7,352.6,285.5c442.6,659.2,1055.8,965.7,1937.2,967.6c314.3,0,503.9-21.1,749.2-86.2c488.6-128.4,906.3-433,1209.1-883.3c72.8-109.2,160.9-216.5,197.4-239.5c126.5-88.1,304.7-46,410.1,95.8c30.6,40.2,40.2,82.4,40.2,164.8c0,103.5-5.7,118.8-153.3,337.2c-176.3,266.3-471.4,574.8-699.4,732C6176-378,5449.8-211.3,4650.7-280.3z"/></g></g>
</svg>